<?xml version="1.0" encoding="UTF-8" standalone="no"?><!DOCTYPE svg PUBLIC "-//W3C//DTD SVG 1.1//EN" "http://www.w3.org/Graphics/SVG/1.1/DTD/svg11.dtd"><svg width="100%" height="100%" viewBox="0 0 3011 873" version="1.1" xmlns="http://www.w3.org/2000/svg" xmlns:xlink="http://www.w3.org/1999/xlink" xml:space="preserve" xmlns:affinity="https://www.affinity.studio/" style="fill-rule:evenodd;clip-rule:evenodd;stroke-linejoin:round;stroke-miterlimit:2;"><rect id="Mesa-de-trabajo1" affinity:id="Mesa de trabajo1" x="0" y="0" width="3010.151" height="872.657" style="fill:none;"/><g><path d="M921.62,503.208l-33.458,105.675c-2.692,8.077 -3.646,14.864 -2.861,20.361c0.785,5.497 3.253,9.984 7.404,13.462c4.151,3.478 9.816,6.338 16.996,8.582l18.173,3.702c2.917,0.897 5.048,1.907 6.394,3.029c1.346,1.122 2.019,2.692 2.019,4.712c0,2.019 -0.841,3.758 -2.524,5.216c-1.683,1.458 -4.319,2.188 -7.909,2.188l-100.627,0c-3.365,0 -5.89,-0.673 -7.572,-2.019c-1.683,-1.346 -2.524,-3.141 -2.524,-5.385c0,-1.795 0.561,-3.309 1.683,-4.543c1.122,-1.234 3.141,-2.3 6.058,-3.197l14.135,-4.712c6.282,-2.244 11.667,-6.114 16.154,-11.611c4.487,-5.497 8.75,-14.864 12.789,-28.102l117.118,-369.527c2.468,-7.404 2.748,-13.013 0.841,-16.827c-1.907,-3.814 -6.675,-6.731 -14.303,-8.75c-4.263,-1.346 -7.292,-2.692 -9.087,-4.039c-1.795,-1.346 -2.692,-3.029 -2.692,-5.048c0,-2.468 0.897,-4.319 2.692,-5.553c1.795,-1.234 4.487,-1.851 8.077,-1.851l123.849,0c3.59,0 6.226,0.617 7.909,1.851c1.683,1.234 2.524,2.973 2.524,5.216c0,2.244 -0.841,4.095 -2.524,5.553c-1.683,1.458 -4.543,2.636 -8.582,3.534c-6.507,1.122 -10.377,2.861 -11.611,5.216c-1.234,2.356 -0.954,6.45 0.841,12.284l131.253,396.787c2.468,7.628 5.665,13.294 9.592,16.996c3.926,3.702 9.479,6.114 16.659,7.236c3.814,1.122 6.394,2.356 7.741,3.702c1.346,1.346 2.019,3.141 2.019,5.385c0,2.019 -0.897,3.758 -2.692,5.216c-1.795,1.458 -4.375,2.188 -7.741,2.188l-130.243,0c-3.365,0 -5.946,-0.729 -7.741,-2.188c-1.795,-1.458 -2.692,-3.197 -2.692,-5.216c0,-2.019 0.729,-3.646 2.188,-4.88c1.458,-1.234 3.646,-2.188 6.563,-2.861l21.202,-3.029c5.385,-1.346 8.414,-3.702 9.087,-7.067c0.673,-3.365 0,-8.414 -2.019,-15.145l-41.298,-126.541l-171.259,0Zm165.438,-17.837l-81.107,-248.52l-78.684,248.52l159.79,0Zm308.987,48.991l-60.951,85.963c-5.609,8.077 -7.516,14.752 -5.721,20.024c1.795,5.273 7.404,9.143 16.827,11.611l13.462,3.029c2.917,0.897 4.992,1.963 6.226,3.197c1.234,1.234 1.851,2.748 1.851,4.543c0,2.019 -0.841,3.702 -2.524,5.048c-1.683,1.346 -4.095,2.019 -7.236,2.019l-86.492,0c-3.141,0 -5.609,-0.673 -7.404,-2.019c-1.795,-1.346 -2.692,-3.141 -2.692,-5.385c0,-1.795 0.673,-3.365 2.019,-4.712c1.346,-1.346 3.814,-2.58 7.404,-3.702c6.282,-1.571 11.835,-3.758 16.659,-6.563c4.824,-2.805 9.648,-6.787 14.471,-11.947c4.824,-5.16 10.152,-11.891 15.986,-20.193l68.403,-94.475l-81.864,-117.885c-5.385,-7.628 -10.433,-12.957 -15.145,-15.986c-4.712,-3.029 -9.984,-5.104 -15.818,-6.226c-3.141,-0.897 -5.329,-2.019 -6.563,-3.365c-1.234,-1.346 -1.851,-3.029 -1.851,-5.048c0,-2.468 0.897,-4.319 2.692,-5.553c1.795,-1.234 4.151,-1.851 7.067,-1.851l125.531,0c2.917,0 5.273,0.617 7.067,1.851c1.795,1.234 2.692,2.973 2.692,5.216c0,1.795 -0.505,3.253 -1.514,4.375c-1.01,1.122 -2.748,2.131 -5.216,3.029l-17.5,3.029c-6.282,1.346 -9.984,3.758 -11.106,7.236c-1.122,3.478 0.337,8.021 4.375,13.63l62.798,90.329l54.993,-77.541c6.058,-8.75 8.301,-16.154 6.731,-22.212c-1.571,-6.058 -7.067,-9.984 -16.491,-11.779l-15.481,-3.029c-2.692,-0.673 -4.656,-1.627 -5.89,-2.861c-1.234,-1.234 -1.851,-2.636 -1.851,-4.207c0,-2.468 0.897,-4.263 2.692,-5.385c1.795,-1.122 4.151,-1.683 7.067,-1.683l87.165,0c2.917,0 5.216,0.617 6.899,1.851c1.683,1.234 2.524,2.973 2.524,5.216c0,1.795 -0.673,3.309 -2.019,4.543c-1.346,1.234 -3.702,2.524 -7.067,3.87c-10.321,2.468 -18.342,6.507 -24.063,12.116c-5.721,5.609 -12.957,14.584 -21.707,26.924l-63.674,87.552l86.223,121.106c6.507,8.975 12.116,15.425 16.827,19.351c4.712,3.926 9.984,6.45 15.818,7.572c2.692,0.897 4.599,1.963 5.721,3.197c1.122,1.234 1.683,2.748 1.683,4.543c0,2.244 -0.841,4.039 -2.524,5.385c-1.683,1.346 -4.095,2.019 -7.236,2.019l-128.56,0c-3.141,0 -5.609,-0.673 -7.404,-2.019c-1.795,-1.346 -2.692,-3.141 -2.692,-5.385c0,-1.795 0.561,-3.253 1.683,-4.375c1.122,-1.122 3.029,-2.019 5.721,-2.692l18.51,-3.365c7.18,-1.122 11.386,-3.422 12.62,-6.899c1.234,-3.478 -0.393,-8.47 -4.88,-14.976l-67.273,-96.06Zm313.288,-163.08l0,265.871c0,4.487 0.954,7.909 2.861,10.265c1.907,2.356 4.656,3.982 8.245,4.88l17.837,3.365c2.917,0.673 4.992,1.627 6.226,2.861c1.234,1.234 1.851,2.748 1.851,4.543c0,2.244 -0.785,3.982 -2.356,5.216c-1.571,1.234 -3.926,1.851 -7.067,1.851l-121.493,0c-3.141,0 -5.441,-0.617 -6.899,-1.851c-1.458,-1.234 -2.188,-2.973 -2.188,-5.216c0,-1.571 0.561,-2.973 1.683,-4.207c1.122,-1.234 3.029,-2.188 5.721,-2.861l18.847,-3.702c3.814,-0.897 6.619,-2.524 8.414,-4.88c1.795,-2.356 2.692,-5.665 2.692,-9.928l0,-227.505c0,-3.141 -0.617,-5.497 -1.851,-7.067c-1.234,-1.571 -3.197,-2.468 -5.89,-2.692l-24.231,-0.337c-2.468,-0.449 -4.263,-1.234 -5.385,-2.356c-1.122,-1.122 -1.683,-2.468 -1.683,-4.039c0,-1.795 0.617,-3.309 1.851,-4.543c1.234,-1.234 3.422,-2.412 6.563,-3.534l67.309,-20.866c4.712,-1.795 8.414,-2.973 11.106,-3.534c2.692,-0.561 5.048,-0.841 7.067,-0.841c3.59,0 6.282,1.01 8.077,3.029c1.795,2.019 2.692,4.712 2.692,8.077Zm-37.693,-70.001c-12.789,0 -23.222,-3.87 -31.299,-11.611c-8.077,-7.741 -12.116,-17.556 -12.116,-29.448c0,-11.891 4.039,-21.707 12.116,-29.448c8.077,-7.741 18.51,-11.611 31.299,-11.611c13.013,0 23.614,3.87 31.804,11.611c8.189,7.741 12.284,17.556 12.284,29.448c0,11.891 -4.095,21.707 -12.284,29.448c-8.189,7.741 -18.79,11.611 -31.804,11.611Zm195.438,383.038c-14.006,-5.652 -23.846,-11.67 -29.521,-18.055c-6.282,-7.067 -9.423,-15.425 -9.423,-25.073c0,-8.301 2.188,-15.986 6.563,-23.053c4.375,-7.067 11.667,-13.35 21.875,-18.847c6.048,-3.257 13.415,-6.139 22.102,-8.648c-8.061,-2.324 -15.709,-5.275 -22.943,-8.853c-20.641,-10.209 -36.683,-24.007 -48.126,-41.395c-11.443,-17.388 -17.164,-36.852 -17.164,-58.391c0,-24.231 5.89,-45.602 17.669,-64.112c11.779,-18.51 28.382,-33.094 49.809,-43.751c21.427,-10.657 46.499,-15.986 75.218,-15.986c24.276,0 45.773,4.059 64.49,12.177c9.205,-16.716 19.568,-29.693 31.089,-38.932c11.891,-9.535 25.129,-14.303 39.712,-14.303c12.564,0 22.773,3.534 30.626,10.601c7.853,7.067 11.779,16.322 11.779,27.765c0,9.199 -2.3,16.547 -6.899,22.044c-4.599,5.497 -11.162,8.245 -19.688,8.245c-5.833,0 -10.657,-1.627 -14.471,-4.88c-3.814,-3.253 -7.18,-7.011 -10.096,-11.274c-2.917,-4.263 -6.058,-8.021 -9.423,-11.274c-3.365,-3.253 -7.516,-4.88 -12.452,-4.88c-6.507,0 -12.452,2.58 -17.837,7.741c-3.47,3.325 -7.312,8.141 -11.527,14.447c18.495,10.101 33.051,23.403 43.667,39.905c11.33,17.613 16.996,37.188 16.996,58.727c0,24.231 -6.114,45.546 -18.342,63.944c-12.228,18.398 -28.999,32.813 -50.314,43.246c-21.315,10.433 -45.546,15.649 -72.694,15.649c-11.596,0 -22.589,-0.916 -32.977,-2.748c-3.232,1.969 -5.925,4.063 -8.081,6.282c-3.814,3.926 -5.721,8.358 -5.721,13.294c0,4.487 2.019,8.806 6.058,12.957c4.039,4.151 13.013,8.582 26.924,13.294c13.911,4.712 35.898,10.321 65.963,16.827c29.167,5.385 52.108,11.891 68.824,19.52c16.715,7.628 28.494,16.659 35.337,27.092c6.843,10.433 10.265,22.829 10.265,37.188c0,27.821 -14.023,50.538 -42.068,68.15c-28.045,17.613 -67.982,26.419 -119.81,26.419c-36.796,0 -66.636,-3.365 -89.521,-10.096c-22.885,-6.731 -39.656,-15.93 -50.314,-27.597c-10.657,-11.667 -15.986,-24.792 -15.986,-39.376c0,-18.398 8.75,-34.608 26.251,-48.631c13.666,-10.95 35.061,-19.403 64.185,-25.36Zm52.259,-310.344c-13.686,0.449 -25.353,4.824 -35.001,13.125c-9.648,8.301 -16.771,19.912 -21.371,34.832c-4.599,14.92 -6.226,32.477 -4.88,52.669c1.571,21.539 5.89,40.385 12.957,56.54c7.067,16.154 16.491,28.55 28.27,37.188c11.779,8.638 25.073,12.733 39.881,12.284c20.866,-0.897 36.852,-10.209 47.958,-27.933c11.106,-17.725 15.537,-41.844 13.294,-72.357c-2.244,-32.981 -10.601,-59.12 -25.073,-78.415c-14.471,-19.295 -33.15,-28.606 -56.035,-27.933Zm-36.29,316.035c-16.595,3.837 -29.627,9.832 -39.096,17.986c-12.116,10.433 -18.173,22.38 -18.173,35.842c0,22.212 8.918,40.329 26.755,54.352c17.837,14.023 47.06,21.034 87.67,21.034c22.212,0 40.61,-2.244 55.193,-6.731c14.584,-4.487 25.409,-10.994 32.477,-19.52c7.067,-8.526 10.601,-18.622 10.601,-30.289c0,-8.75 -2.692,-16.491 -8.077,-23.222c-5.385,-6.731 -14.976,-12.901 -28.775,-18.51c-13.798,-5.609 -33.374,-10.994 -58.727,-16.154c-24.468,-4.965 -44.418,-9.894 -59.849,-14.789Zm351.97,-258.797l0,205.94c0,4.487 0.897,7.909 2.692,10.265c1.795,2.356 4.487,3.982 8.077,4.88l17.837,3.365c4.936,1.346 7.404,3.814 7.404,7.404c0,4.712 -3.253,7.067 -9.76,7.067l-120.483,0c-2.917,0 -5.16,-0.617 -6.731,-1.851c-1.571,-1.234 -2.356,-2.973 -2.356,-5.216c0,-1.571 0.617,-2.973 1.851,-4.207c1.234,-1.234 3.085,-2.188 5.553,-2.861l18.847,-3.702c3.814,-0.897 6.619,-2.524 8.414,-4.88c1.795,-2.356 2.692,-5.665 2.692,-9.928l0,-227.505c0,-3.141 -0.561,-5.497 -1.683,-7.067c-1.122,-1.571 -3.141,-2.468 -6.058,-2.692l-24.231,-0.337c-2.468,-0.449 -4.263,-1.234 -5.385,-2.356c-1.122,-1.122 -1.683,-2.468 -1.683,-4.039c0,-1.795 0.617,-3.309 1.851,-4.543c1.234,-1.234 3.422,-2.412 6.563,-3.534l67.309,-20.866c4.487,-1.571 8.133,-2.692 10.938,-3.365c2.805,-0.673 5.329,-1.01 7.572,-1.01c3.59,0 6.282,1.01 8.077,3.029c1.795,2.019 2.692,4.712 2.692,8.077l0,44.048c23.435,-20.975 44.189,-35.657 62.261,-44.048c18.847,-8.75 36.796,-13.125 53.847,-13.125c25.802,0 46.836,8.021 63.102,24.063c16.266,16.042 24.4,39.095 24.4,69.16l0,183.754c0,5.16 1.122,9.143 3.365,11.947c2.244,2.805 5.497,4.768 9.76,5.89l15.818,3.029c2.468,0.673 4.319,1.627 5.553,2.861c1.234,1.234 1.851,2.636 1.851,4.207c0,2.244 -0.729,3.982 -2.188,5.216c-1.458,1.234 -3.758,1.851 -6.899,1.851l-121.156,0c-6.731,0 -10.096,-2.356 -10.096,-7.067c0,-3.59 2.468,-6.058 7.404,-7.404l18.51,-3.365c4.487,-0.897 7.628,-2.805 9.423,-5.721c1.795,-2.917 2.692,-6.731 2.692,-11.443l0,-175.004c0,-22.661 -5.441,-39.432 -16.322,-50.314c-10.882,-10.882 -25.297,-16.322 -43.246,-16.322c-10.994,0 -22.605,2.636 -34.832,7.909c-12.228,5.273 -24.96,13.742 -38.198,25.409l-5.048,4.401Zm469.292,206.465c-10.192,10.722 -22.357,19.409 -36.495,26.062c-19.071,8.975 -39.488,13.462 -61.251,13.462c-26.924,0 -48.743,-6.843 -65.458,-20.529c-16.715,-13.686 -25.073,-31.635 -25.073,-53.847c0,-25.129 10.826,-45.658 32.477,-61.588c21.651,-15.93 52.894,-23.895 93.728,-23.895c15.481,0 29.055,1.458 40.722,4.375c6.18,1.545 12.013,3.31 17.5,5.296l0,-95.153c0,-19.744 -4.431,-34.832 -13.294,-45.265c-8.862,-10.433 -21.819,-15.649 -38.871,-15.649c-17.052,0 -29.784,3.758 -38.198,11.274c-8.414,7.516 -12.62,16.098 -12.62,25.746l0,24.904c0,10.096 -3.309,18.061 -9.928,23.895c-6.619,5.833 -15.425,8.75 -26.419,8.75c-9.199,0 -16.435,-2.58 -21.707,-7.741c-5.273,-5.16 -7.909,-12.34 -7.909,-21.539c0,-12.789 4.936,-25.185 14.808,-37.188c9.872,-12.003 24.287,-21.875 43.246,-29.616c18.959,-7.741 42.012,-11.611 69.16,-11.611c36.123,0 63.046,7.853 80.771,23.558c17.725,15.705 26.587,37.132 26.587,64.28l0,180.725c0,8.077 1.458,13.911 4.375,17.5c2.917,3.59 6.731,5.385 11.443,5.385c4.712,0 8.47,-1.234 11.274,-3.702c2.805,-2.468 4.88,-5.609 6.226,-9.423c0.673,-0.897 1.402,-1.739 2.188,-2.524c0.785,-0.785 1.739,-1.178 2.861,-1.178c1.571,0 2.692,0.561 3.365,1.683c0.673,1.122 1.01,2.58 1.01,4.375c0,5.16 -1.907,10.713 -5.721,16.659c-3.814,5.946 -9.648,11.05 -17.5,15.313c-7.853,4.263 -17.837,6.394 -29.953,6.394c-16.603,0 -29.336,-3.814 -38.198,-11.443c-7.928,-6.824 -12.31,-16.073 -13.146,-27.745Zm-3.85,-98.055c-5.845,-2.119 -11.847,-3.993 -18.005,-5.621c-9.76,-2.58 -20.361,-3.87 -31.804,-3.87c-21.315,0 -37.805,5.553 -49.472,16.659c-11.667,11.106 -17.5,26.307 -17.5,45.602c0,18.622 5.048,33.038 15.145,43.246c10.096,10.209 23.222,15.313 39.376,15.313c13.237,0 26.138,-2.973 38.703,-8.918c8.717,-4.125 16.569,-9.518 23.558,-16.181l0,-86.229Zm247.024,-354.45l0,451.98c0,4.487 0.954,7.909 2.861,10.265c1.907,2.356 4.656,3.982 8.245,4.88l17.837,3.365c2.917,0.673 4.992,1.627 6.226,2.861c1.234,1.234 1.851,2.748 1.851,4.543c0,2.244 -0.785,3.982 -2.356,5.216c-1.571,1.234 -4.039,1.851 -7.404,1.851l-121.156,0c-3.141,0 -5.497,-0.617 -7.067,-1.851c-1.571,-1.234 -2.356,-2.973 -2.356,-5.216c0,-1.571 0.673,-3.029 2.019,-4.375c1.346,-1.346 3.478,-2.356 6.394,-3.029l18.173,-3.365c3.814,-0.897 6.619,-2.524 8.414,-4.88c1.795,-2.356 2.692,-5.665 2.692,-9.928l0,-413.278c0,-3.141 -0.617,-5.497 -1.851,-7.067c-1.234,-1.571 -3.197,-2.468 -5.89,-2.692l-24.568,-0.673c-2.244,-0.224 -3.926,-0.897 -5.048,-2.019c-1.122,-1.122 -1.683,-2.468 -1.683,-4.039c0,-2.019 0.617,-3.59 1.851,-4.712c1.234,-1.122 3.422,-2.244 6.563,-3.365l66.973,-20.866c4.936,-1.795 8.75,-3.029 11.443,-3.702c2.692,-0.673 5.048,-1.01 7.067,-1.01c3.59,0 6.282,1.01 8.077,3.029c1.795,2.019 2.692,4.712 2.692,8.077Z" style="fill:#fff;"/><path d="M158.258,553.38c-41.64,22.929 -73.967,48.743 -96.981,77.443c-23.753,29.621 -35.629,62.596 -35.629,98.924c0,31.298 8.803,56.728 26.408,76.289c17.605,19.561 40.659,29.342 69.163,29.342c22.915,0 41.218,-5.729 54.911,-17.186c13.693,-11.457 20.539,-27.805 20.539,-49.043c0,-14.531 -4.052,-26.547 -12.156,-36.049c-8.104,-9.501 -17.465,-17.885 -28.084,-25.15c-10.619,-7.266 -19.98,-15.09 -28.084,-23.473c-8.104,-8.383 -12.156,-18.723 -12.156,-31.019c0,-16.208 6.427,-31.019 19.282,-44.432c8.283,-8.643 20.279,-18.215 35.988,-28.714c25.161,46.072 58.296,82.33 99.404,108.776c43.873,28.224 92.636,42.336 146.29,42.336c60.36,0 113.455,-15.23 159.284,-45.689c45.829,-30.46 81.738,-72.237 107.727,-125.332c25.989,-53.095 38.983,-113.455 38.983,-181.081c0,-68.185 -12.715,-127.986 -38.144,-179.405c-25.43,-51.418 -59.802,-91.379 -103.116,-119.882c-43.314,-28.504 -91.798,-42.755 -145.452,-42.755c-60.36,0 -113.595,14.671 -159.704,44.013c-46.109,29.342 -82.437,70.7 -108.984,124.074c-26.547,53.374 -39.821,115.83 -39.821,187.369c0,60.472 10.111,114.021 30.333,160.645Zm5.172,-201.661c15.936,-135.45 145.974,-231.641 290.21,-214.671c144.236,16.969 248.399,140.714 232.463,276.164c-15.936,135.45 -145.974,231.641 -290.21,214.671c-144.236,-16.969 -248.399,-140.714 -232.463,-276.164Z" style="fill:#354f98;"/></g></svg>